<?xml version='1.0' encoding='UTF-8'?>
<svg xmlns="http://www.w3.org/2000/svg" viewBox="0 0 256 309">
  <g transform="translate(50, 50)">
    <path style="fill:#000000" d="m 73.578703,199.62219 c -1.89009,-2.47803 -5.19374,-4.7529 -10.36868,-7.13976 -16.30532,-7.52059 -27.31789,-17.74799 -34.15889,-31.72345 -6.1252,-12.51313 -7.07964,-17.47232 -7.67119,-39.85866 -0.50473,-19.1009 -0.45302,-19.83656 1.35527,-19.27971 7.01861,2.16136 16.78314,3.76807 28.88003,4.75211 24.0502,1.95638 66.149447,-0.0296 79.371577,-3.74431 l 2.37158,-0.66628 -0.52095,19.39843 c -0.60022,22.35049 -1.54386,26.82498 -8.50423,40.32444 -6.07101,11.77458 -15.35883,21.15327 -27.768847,28.04052 -4.92202,2.7316 -11.0208,6.8941 -13.55284,9.25 -2.53203,2.3559 -5.06612,4.28346 -5.63131,4.28346 -0.56518,0 -2.27586,-1.63655 -3.80152,-3.63679 z m -25.96346,-98.40547 c -21.9119,-2.21335 -27.90422,-4.21386 -30.88097,-10.30948 -1.65651,-3.39211 -1.7516,-4.63246 -0.79687,-10.394056 1.56398,-9.438354 5.49907,-16.716751 13.24455,-24.497365 8.27937,-8.316918 19.18375,-13.873055 32.12804,-16.370272 l 8.69475,-1.677395 -0.19475,-15.602217 -0.19475,-15.6022146 3.71676,-0.920614 c 4.21052,-1.042913 11.24327,0.566366 12.08731,2.765894 0.28107,0.732458 -0.11279,6.9158446 -0.87524,13.7408616 -0.76245,6.825017 -1.39585,13.131549 -1.40756,14.014516 -0.0164,1.241649 1.39484,1.742168 6.22873,2.209043 13.596037,1.313155 27.852497,8.821821 39.061157,20.572934 7.38449,7.741869 10.86813,15.225852 11.47275,24.647222 0.27197,4.237743 0.006,7.989003 -0.6532,9.221163 -2.7642,5.16496 -22.92842,8.25105 -57.130707,8.74374 -14.025,0.20204 -29.55,-0.0418 -34.5,-0.54176 z"/>
  </g>
</svg>
